<svg width="300" height="300" viewBox="0 0 300 300" fill="none" xmlns="http://www.w3.org/2000/svg">
<rect y="1.52588e-05" width="300" height="300" fill="white"/>
<path d="M39.808 35.464C39.424 35.0373 38.6133 34.4827 37.376 33.8C36.1387 33.0747 34.6453 32.4347 32.896 31.88C31.1893 31.2827 29.4187 30.984 27.584 30.984C22.7627 30.984 20.352 32.6907 20.352 36.104C20.352 37.3413 20.736 38.3227 21.504 39.048C22.272 39.7733 23.424 40.392 24.96 40.904C26.496 41.416 28.416 41.9707 30.72 42.568C33.7067 43.336 36.288 44.232 38.464 45.256C40.6827 46.28 42.368 47.6453 43.52 49.352C44.7147 51.016 45.312 53.2347 45.312 56.008C45.312 59.2507 44.5227 61.8747 42.944 63.88C41.408 65.8427 39.36 67.272 36.8 68.168C34.24 69.064 31.4667 69.512 28.48 69.512C25.0667 69.512 21.6747 69 18.304 67.976C14.976 66.9093 12.0107 65.4587 9.408 63.624L13.312 56.008C13.696 56.392 14.3787 56.904 15.36 57.544C16.3413 58.1413 17.536 58.76 18.944 59.4C20.352 59.9973 21.888 60.5093 23.552 60.936C25.216 61.3627 26.9013 61.576 28.608 61.576C33.472 61.576 35.904 60.0187 35.904 56.904C35.904 55.5813 35.4133 54.5147 34.432 53.704C33.4507 52.8933 32.064 52.2107 30.272 51.656C28.5227 51.1013 26.4747 50.4827 24.128 49.8C21.2267 48.9893 18.816 48.0933 16.896 47.112C15.0187 46.088 13.6107 44.8293 12.672 43.336C11.7333 41.8 11.264 39.8587 11.264 37.512C11.264 34.3973 11.9893 31.7947 13.44 29.704C14.9333 27.5707 16.9387 25.9707 19.456 24.904C21.9733 23.7947 24.768 23.24 27.84 23.24C30.9973 23.24 33.9413 23.752 36.672 24.776C39.4027 25.8 41.7493 26.9733 43.712 28.296L39.808 35.464ZM51.154 30.792V22.28H59.73V30.792H51.154ZM51.154 69V35.464H59.73V69H51.154ZM119.563 69H110.987V50.184C110.987 47.5387 110.517 45.5973 109.579 44.36C108.683 43.08 107.424 42.44 105.803 42.44C104.096 42.44 102.496 43.1013 101.003 44.424C99.5092 45.704 98.4425 47.3893 97.8025 49.48V69H89.2265V50.184C89.2265 47.496 88.7572 45.5333 87.8185 44.296C86.9225 43.0587 85.6638 42.44 84.0425 42.44C82.3785 42.44 80.7785 43.08 79.2425 44.36C77.7492 45.64 76.6825 47.3253 76.0425 49.416V69H67.4665V35.464H75.2105V41.672C76.4478 39.496 78.1332 37.832 80.2665 36.68C82.4425 35.4853 84.9172 34.888 87.6905 34.888C90.4638 34.888 92.6185 35.5707 94.1545 36.936C95.7332 38.3013 96.7358 39.9867 97.1625 41.992C98.4852 39.688 100.213 37.9387 102.347 36.744C104.48 35.5067 106.869 34.888 109.515 34.888C111.605 34.888 113.291 35.272 114.571 36.04C115.893 36.7653 116.917 37.768 117.643 39.048C118.368 40.2853 118.859 41.6933 119.115 43.272C119.413 44.8507 119.563 46.4507 119.563 48.072V69ZM147.125 69.64C144.48 69.64 142.176 69.0427 140.213 67.848C138.25 66.6533 136.714 65.0747 135.605 63.112V82.632H127.029V35.464H134.517V41.224C135.754 39.2613 137.354 37.7253 139.317 36.616C141.322 35.464 143.584 34.888 146.101 34.888C149.13 34.888 151.818 35.6773 154.165 37.256C156.512 38.792 158.368 40.8827 159.733 43.528C161.098 46.1307 161.781 49.0107 161.781 52.168C161.781 55.4533 161.141 58.4187 159.861 61.064C158.624 63.6667 156.896 65.7573 154.677 67.336C152.501 68.872 149.984 69.64 147.125 69.64ZM144.245 62.344C145.994 62.344 147.509 61.8747 148.789 60.936C150.112 59.9547 151.136 58.696 151.861 57.16C152.629 55.5813 153.013 53.9173 153.013 52.168C153.013 50.2907 152.608 48.6053 151.797 47.112C150.986 45.576 149.877 44.3813 148.469 43.528C147.104 42.632 145.525 42.184 143.733 42.184C142.112 42.184 140.49 42.7173 138.869 43.784C137.248 44.8507 136.16 46.1947 135.605 47.816V55.688C136.373 57.5653 137.546 59.144 139.125 60.424C140.704 61.704 142.41 62.344 144.245 62.344ZM167.528 22.28H176.104V58.248C176.104 59.8267 176.36 60.872 176.872 61.384C177.384 61.896 178.088 62.152 178.984 62.152C179.666 62.152 180.37 62.0667 181.096 61.896C181.821 61.7253 182.461 61.512 183.016 61.256L184.168 67.784C183.016 68.3387 181.672 68.7653 180.135 69.064C178.6 69.3627 177.213 69.512 175.976 69.512C173.288 69.512 171.197 68.808 169.704 67.4C168.253 65.9493 167.528 63.9013 167.528 61.256V22.28ZM203.456 69.64C199.829 69.64 196.693 68.8507 194.048 67.272C191.445 65.6933 189.419 63.6027 187.968 61C186.517 58.3547 185.792 55.496 185.792 52.424C185.792 49.2667 186.496 46.3653 187.904 43.72C189.355 41.032 191.403 38.8987 194.048 37.32C196.693 35.6987 199.851 34.888 203.52 34.888C207.189 34.888 210.325 35.6987 212.928 37.32C215.531 38.8987 217.515 41.0107 218.88 43.656C220.288 46.2587 220.992 49.0747 220.992 52.104C220.992 53.2133 220.928 54.1733 220.8 54.984H194.88C195.093 57.5867 196.053 59.6347 197.76 61.128C199.509 62.6213 201.515 63.368 203.776 63.368C205.483 63.368 207.083 62.9627 208.576 62.152C210.112 61.2987 211.157 60.1893 211.712 58.824L219.072 60.872C217.835 63.432 215.851 65.544 213.12 67.208C210.389 68.8293 207.168 69.64 203.456 69.64ZM194.688 49.544H212.224C211.968 47.0267 211.008 45 209.344 43.464C207.723 41.8853 205.739 41.096 203.392 41.096C201.088 41.096 199.104 41.8853 197.44 43.464C195.819 45 194.901 47.0267 194.688 49.544ZM46.72 134.304H32.192V172H23.424V134.304H8.896V126.56H46.72V134.304ZM43.725 162.08C43.725 159.904 44.3223 158.005 45.517 156.384C46.7543 154.72 48.461 153.44 50.637 152.544C52.813 151.648 55.309 151.2 58.125 151.2C59.533 151.2 60.9623 151.328 62.413 151.584C63.8637 151.797 65.1223 152.117 66.189 152.544V150.752C66.189 148.619 65.549 146.976 64.269 145.824C63.0317 144.672 61.1757 144.096 58.701 144.096C56.8663 144.096 55.117 144.416 53.453 145.056C51.789 145.696 50.0397 146.635 48.205 147.872L45.453 142.24C47.6717 140.789 49.933 139.701 52.237 138.976C54.5837 138.251 57.037 137.888 59.597 137.888C64.3757 137.888 68.0877 139.083 70.733 141.472C73.421 143.861 74.765 147.275 74.765 151.712V162.4C74.765 163.339 74.9143 164 75.213 164.384C75.5117 164.725 76.045 164.939 76.813 165.024V172C76.045 172.171 75.341 172.277 74.701 172.32C74.1037 172.405 73.5917 172.448 73.165 172.448C71.4583 172.448 70.157 172.064 69.261 171.296C68.365 170.528 67.8317 169.589 67.661 168.48L67.469 166.752C65.9757 168.672 64.141 170.144 61.965 171.168C59.8317 172.149 57.6343 172.64 55.373 172.64C53.1117 172.64 51.1063 172.192 49.357 171.296C47.6077 170.357 46.221 169.099 45.197 167.52C44.2157 165.899 43.725 164.085 43.725 162.08ZM64.589 163.808C65.6557 162.784 66.189 161.803 66.189 160.864V157.472C63.9703 156.576 61.7303 156.128 59.469 156.128C57.2077 156.128 55.373 156.619 53.965 157.6C52.557 158.539 51.853 159.797 51.853 161.376C51.853 162.656 52.365 163.808 53.389 164.832C54.413 165.856 55.885 166.368 57.805 166.368C59.085 166.368 60.3223 166.133 61.517 165.664C62.7543 165.195 63.7783 164.576 64.589 163.808ZM95.131 172.64C92.2723 172.64 89.5417 172.171 86.939 171.232C84.3363 170.293 82.0963 168.907 80.219 167.072L83.291 161.504C85.2963 163.125 87.259 164.32 89.179 165.088C91.099 165.856 92.9763 166.24 94.811 166.24C96.475 166.24 97.7977 165.941 98.779 165.344C99.803 164.747 100.315 163.851 100.315 162.656C100.315 161.419 99.6963 160.587 98.459 160.16C97.2217 159.691 95.4937 159.115 93.275 158.432C90.8003 157.664 88.731 156.875 87.067 156.064C85.403 155.253 84.1443 154.272 83.291 153.12C82.4803 151.968 82.075 150.475 82.075 148.64C82.075 145.355 83.3123 142.731 85.787 140.768C88.2617 138.805 91.547 137.824 95.643 137.824C98.0323 137.824 100.294 138.208 102.427 138.976C104.56 139.701 106.502 140.896 108.251 142.56L104.795 148C101.51 145.44 98.331 144.16 95.259 144.16C93.8937 144.16 92.6777 144.416 91.611 144.928C90.587 145.44 90.075 146.336 90.075 147.616C90.075 148.811 90.5657 149.664 91.547 150.176C92.571 150.688 94.107 151.243 96.155 151.84C98.8003 152.651 101.04 153.44 102.875 154.208C104.752 154.976 106.16 155.957 107.099 157.152C108.08 158.347 108.571 159.968 108.571 162.016C108.571 165.344 107.355 167.947 104.923 169.824C102.491 171.701 99.227 172.64 95.131 172.64ZM137.316 172L127.524 157.536L122.98 162.016V172H114.404V125.28H122.98V153.568L136.484 138.528H145.572L133.092 152.736L146.468 172H137.316ZM12.736 275V229.56H32.832C34.9227 229.56 36.8427 229.987 38.592 230.84C40.384 231.693 41.92 232.845 43.2 234.296C44.5227 235.747 45.5253 237.368 46.208 239.16C46.9333 240.952 47.296 242.787 47.296 244.664C47.296 247.565 46.5493 250.232 45.056 252.664C43.6053 255.096 41.6213 256.845 39.104 257.912L49.472 275H39.744L30.4 259.768H21.568V275H12.736ZM21.568 252.024H32.64C34.304 252.024 35.6693 251.32 36.736 249.912C37.8453 248.461 38.4 246.712 38.4 244.664C38.4 243.256 38.1013 241.997 37.504 240.888C36.9067 239.779 36.1387 238.904 35.2 238.264C34.304 237.624 33.3227 237.304 32.256 237.304H21.568V252.024ZM68.8935 275.64C65.2668 275.64 62.1308 274.851 59.4855 273.272C56.8828 271.693 54.8562 269.603 53.4055 267C51.9548 264.355 51.2295 261.496 51.2295 258.424C51.2295 255.267 51.9335 252.365 53.3415 249.72C54.7922 247.032 56.8402 244.899 59.4855 243.32C62.1308 241.699 65.2882 240.888 68.9575 240.888C72.6268 240.888 75.7628 241.699 78.3655 243.32C80.9682 244.899 82.9522 247.011 84.3175 249.656C85.7255 252.259 86.4295 255.075 86.4295 258.104C86.4295 259.213 86.3655 260.173 86.2375 260.984H60.3175C60.5308 263.587 61.4908 265.635 63.1975 267.128C64.9468 268.621 66.9522 269.368 69.2135 269.368C70.9202 269.368 72.5202 268.963 74.0135 268.152C75.5495 267.299 76.5948 266.189 77.1495 264.824L84.5095 266.872C83.2722 269.432 81.2882 271.544 78.5575 273.208C75.8268 274.829 72.6055 275.64 68.8935 275.64ZM60.1255 255.544H77.6615C77.4055 253.027 76.4455 251 74.7815 249.464C73.1602 247.885 71.1762 247.096 68.8295 247.096C66.5255 247.096 64.5415 247.885 62.8775 249.464C61.2562 251 60.3388 253.027 60.1255 255.544ZM111.75 275.64C109.105 275.64 106.801 275.043 104.838 273.848C102.875 272.653 101.339 271.075 100.23 269.112V288.632H91.654V241.464H99.142V247.224C100.379 245.261 101.979 243.725 103.942 242.616C105.947 241.464 108.209 240.888 110.726 240.888C113.755 240.888 116.443 241.677 118.79 243.256C121.137 244.792 122.993 246.883 124.358 249.528C125.723 252.131 126.406 255.011 126.406 258.168C126.406 261.453 125.766 264.419 124.486 267.064C123.249 269.667 121.521 271.757 119.302 273.336C117.126 274.872 114.609 275.64 111.75 275.64ZM108.87 268.344C110.619 268.344 112.134 267.875 113.414 266.936C114.737 265.955 115.761 264.696 116.486 263.16C117.254 261.581 117.638 259.917 117.638 258.168C117.638 256.291 117.233 254.605 116.422 253.112C115.611 251.576 114.502 250.381 113.094 249.528C111.729 248.632 110.15 248.184 108.358 248.184C106.737 248.184 105.115 248.717 103.494 249.784C101.873 250.851 100.785 252.195 100.23 253.816V261.688C100.998 263.565 102.171 265.144 103.75 266.424C105.329 267.704 107.035 268.344 108.87 268.344ZM147.769 275.64C144.142 275.64 141.006 274.851 138.361 273.272C135.758 271.693 133.731 269.603 132.281 267C130.83 264.355 130.105 261.496 130.105 258.424C130.105 255.267 130.809 252.365 132.217 249.72C133.667 247.032 135.715 244.899 138.361 243.32C141.006 241.699 144.163 240.888 147.833 240.888C151.502 240.888 154.638 241.699 157.241 243.32C159.843 244.899 161.827 247.011 163.193 249.656C164.601 252.259 165.305 255.075 165.305 258.104C165.305 259.213 165.241 260.173 165.113 260.984H139.193C139.406 263.587 140.366 265.635 142.073 267.128C143.822 268.621 145.827 269.368 148.089 269.368C149.795 269.368 151.395 268.963 152.889 268.152C154.425 267.299 155.47 266.189 156.025 264.824L163.385 266.872C162.147 269.432 160.163 271.544 157.433 273.208C154.702 274.829 151.481 275.64 147.769 275.64ZM139.001 255.544H156.537C156.281 253.027 155.321 251 153.657 249.464C152.035 247.885 150.051 247.096 147.705 247.096C145.401 247.096 143.417 247.885 141.753 249.464C140.131 251 139.214 253.027 139.001 255.544ZM168.225 265.08C168.225 262.904 168.822 261.005 170.017 259.384C171.254 257.72 172.961 256.44 175.137 255.544C177.313 254.648 179.809 254.2 182.625 254.2C184.033 254.2 185.462 254.328 186.913 254.584C188.364 254.797 189.622 255.117 190.689 255.544V253.752C190.689 251.619 190.049 249.976 188.769 248.824C187.532 247.672 185.676 247.096 183.201 247.096C181.366 247.096 179.617 247.416 177.953 248.056C176.289 248.696 174.54 249.635 172.705 250.872L169.953 245.24C172.172 243.789 174.433 242.701 176.737 241.976C179.084 241.251 181.537 240.888 184.097 240.888C188.876 240.888 192.588 242.083 195.233 244.472C197.921 246.861 199.265 250.275 199.265 254.712V265.4C199.265 266.339 199.414 267 199.713 267.384C200.012 267.725 200.545 267.939 201.313 268.024V275C200.545 275.171 199.841 275.277 199.201 275.32C198.604 275.405 198.092 275.448 197.665 275.448C195.958 275.448 194.657 275.064 193.761 274.296C192.865 273.528 192.332 272.589 192.161 271.48L191.969 269.752C190.476 271.672 188.641 273.144 186.465 274.168C184.332 275.149 182.134 275.64 179.873 275.64C177.612 275.64 175.606 275.192 173.857 274.296C172.108 273.357 170.721 272.099 169.697 270.52C168.716 268.899 168.225 267.085 168.225 265.08ZM189.089 266.808C190.156 265.784 190.689 264.803 190.689 263.864V260.472C188.47 259.576 186.23 259.128 183.969 259.128C181.708 259.128 179.873 259.619 178.465 260.6C177.057 261.539 176.353 262.797 176.353 264.376C176.353 265.656 176.865 266.808 177.889 267.832C178.913 268.856 180.385 269.368 182.305 269.368C183.585 269.368 184.822 269.133 186.017 268.664C187.254 268.195 188.278 267.576 189.089 266.808ZM227.063 273.272C225.911 273.784 224.481 274.296 222.775 274.808C221.111 275.32 219.383 275.576 217.591 275.576C216.012 275.576 214.561 275.299 213.239 274.744C211.916 274.189 210.849 273.315 210.039 272.12C209.271 270.883 208.887 269.283 208.887 267.32V248.056H204.471V241.464H208.887V230.584H217.463V241.464H224.503V248.056H217.463V264.44C217.463 265.592 217.761 266.424 218.359 266.936C218.999 267.448 219.767 267.704 220.663 267.704C221.559 267.704 222.433 267.555 223.287 267.256C224.14 266.957 224.823 266.701 225.335 266.488L227.063 273.272ZM246.644 275.64C243.017 275.64 239.881 274.851 237.236 273.272C234.633 271.693 232.606 269.603 231.156 267C229.705 264.355 228.98 261.496 228.98 258.424C228.98 255.267 229.684 252.365 231.092 249.72C232.542 247.032 234.59 244.899 237.236 243.32C239.881 241.699 243.038 240.888 246.708 240.888C250.377 240.888 253.513 241.699 256.116 243.32C258.718 244.899 260.702 247.011 262.068 249.656C263.476 252.259 264.18 255.075 264.18 258.104C264.18 259.213 264.116 260.173 263.988 260.984H238.068C238.281 263.587 239.241 265.635 240.948 267.128C242.697 268.621 244.702 269.368 246.964 269.368C248.67 269.368 250.27 268.963 251.764 268.152C253.3 267.299 254.345 266.189 254.9 264.824L262.26 266.872C261.022 269.432 259.038 271.544 256.308 273.208C253.577 274.829 250.356 275.64 246.644 275.64ZM237.876 255.544H255.412C255.156 253.027 254.196 251 252.532 249.464C250.91 247.885 248.926 247.096 246.58 247.096C244.276 247.096 242.292 247.885 240.628 249.464C239.006 251 238.089 253.027 237.876 255.544ZM289.372 248.888C286.769 248.888 284.444 249.4 282.396 250.424C280.348 251.405 278.876 252.835 277.98 254.712V275H269.404V241.464H277.276V248.632C278.428 246.328 279.921 244.515 281.756 243.192C283.633 241.869 285.596 241.144 287.644 241.016C288.54 241.016 289.116 241.037 289.372 241.08V248.888Z" fill="black"/>
</svg>
