<svg width="32" height="32" viewBox="0 0 32 32" fill="none" xmlns="http://www.w3.org/2000/svg">
<path d="M31.85 1.4C31.8167 1.76667 31.7833 2.11667 31.75 2.45C31.75 2.75 31.75 3.05 31.75 3.35C31.7167 3.85 31.7 4.33333 31.7 4.8C31.7333 5.26667 31.7833 5.56667 31.85 5.7C31.5833 5.66667 31.2 5.61667 30.7 5.55C30.2333 5.51667 29.85 5.51667 29.55 5.55C29.45 5.58333 29.3833 5.66667 29.35 5.8C29.3167 5.93333 29.25 6 29.15 6C29.2167 6 28.1167 6.1 25.85 6.3C23.5833 6.53333 20.1833 6.68333 15.65 6.75C11.15 6.88333 7.78333 7.05 5.55 7.25C3.35 7.48333 2.23333 7.58333 2.2 7.55C2.43333 7.31667 2.51667 7.13333 2.45 7C2.38333 6.86667 2.33333 6.78333 2.3 6.75L2.05 6.8C1.95 6.9 1.85 6.98333 1.75 7.05C1.65 7.15 1.56667 7.25 1.5 7.35C1.43333 7.31667 1.36667 7.3 1.3 7.3C1.26667 7.3 1.21667 7.28333 1.15 7.25C1.05 7.25 0.966667 7.21667 0.9 7.15C0.866667 7.11667 0.833333 7.1 0.8 7.1L0.9 2.3C1.06667 2.26667 1.11667 2.25 1.05 2.25C0.983333 2.21667 1.01667 2.18333 1.15 2.15C1.18333 2.15 1.56667 2.15 2.3 2.15C3.03333 2.15 4.11667 2.13333 5.55 2.1L14.85 1.6C15.5167 1.6 16.2167 1.63333 16.95 1.7C17.7167 1.76667 18.55 1.88333 19.45 2.05C21.25 2.31667 22.15 2.15 22.15 1.55L26.4 1.05C26.5333 1.01667 26.7667 1 27.1 1C27.4667 1 27.7167 0.983333 27.85 0.95C28.3833 0.883333 28.7333 0.75 28.9 0.55C29.0667 0.35 29.2 0.233333 29.3 0.2C29.4333 0.466666 29.7833 0.683333 30.35 0.85C30.9167 0.983333 31.4167 1.16667 31.85 1.4ZM31.85 13.4C31.8167 13.7667 31.7833 14.1167 31.75 14.45C31.75 14.75 31.75 15.05 31.75 15.35C31.7167 15.85 31.7 16.3333 31.7 16.8C31.7333 17.2667 31.7833 17.5667 31.85 17.7C31.5833 17.6667 31.2 17.6167 30.7 17.55C30.2333 17.5167 29.85 17.5167 29.55 17.55C29.45 17.5833 29.3833 17.6667 29.35 17.8C29.3167 17.9333 29.25 18 29.15 18C29.2167 18 28.1167 18.1 25.85 18.3C23.5833 18.5333 20.1833 18.6833 15.65 18.75C11.15 18.8833 7.78333 19.05 5.55 19.25C3.35 19.4833 2.23333 19.5833 2.2 19.55C2.43333 19.3167 2.51667 19.1333 2.45 19C2.38333 18.8667 2.33333 18.7833 2.3 18.75L2.05 18.8C1.95 18.9 1.85 18.9833 1.75 19.05C1.65 19.15 1.56667 19.25 1.5 19.35C1.43333 19.3167 1.36667 19.3 1.3 19.3C1.26667 19.3 1.21667 19.2833 1.15 19.25C1.05 19.25 0.966667 19.2167 0.9 19.15C0.866667 19.1167 0.833333 19.1 0.8 19.1L0.9 14.3C1.06667 14.2667 1.11667 14.25 1.05 14.25C0.983333 14.2167 1.01667 14.1833 1.15 14.15C1.18333 14.15 1.56667 14.15 2.3 14.15C3.03333 14.15 4.11667 14.1333 5.55 14.1L14.85 13.6C15.5167 13.6 16.2167 13.6333 16.95 13.7C17.7167 13.7667 18.55 13.8833 19.45 14.05C21.25 14.3167 22.15 14.15 22.15 13.55L26.4 13.05C26.5333 13.0167 26.7667 13 27.1 13C27.4667 13 27.7167 12.9833 27.85 12.95C28.3833 12.8833 28.7333 12.75 28.9 12.55C29.0667 12.35 29.2 12.2333 29.3 12.2C29.4333 12.4667 29.7833 12.6833 30.35 12.85C30.9167 12.9833 31.4167 13.1667 31.85 13.4ZM31.85 25.4C31.8167 25.7667 31.7833 26.1167 31.75 26.45C31.75 26.75 31.75 27.05 31.75 27.35C31.7167 27.85 31.7 28.3333 31.7 28.8C31.7333 29.2667 31.7833 29.5667 31.85 29.7C31.5833 29.6667 31.2 29.6167 30.7 29.55C30.2333 29.5167 29.85 29.5167 29.55 29.55C29.45 29.5833 29.3833 29.6667 29.35 29.8C29.3167 29.9333 29.25 30 29.15 30C29.2167 30 28.1167 30.1 25.85 30.3C23.5833 30.5333 20.1833 30.6833 15.65 30.75C11.15 30.8833 7.78333 31.05 5.55 31.25C3.35 31.4833 2.23333 31.5833 2.2 31.55C2.43333 31.3167 2.51667 31.1333 2.45 31C2.38333 30.8667 2.33333 30.7833 2.3 30.75L2.05 30.8C1.95 30.9 1.85 30.9833 1.75 31.05C1.65 31.15 1.56667 31.25 1.5 31.35C1.43333 31.3167 1.36667 31.3 1.3 31.3C1.26667 31.3 1.21667 31.2833 1.15 31.25C1.05 31.25 0.966667 31.2167 0.9 31.15C0.866667 31.1167 0.833333 31.1 0.8 31.1L0.9 26.3C1.06667 26.2667 1.11667 26.25 1.05 26.25C0.983333 26.2167 1.01667 26.1833 1.15 26.15C1.18333 26.15 1.56667 26.15 2.3 26.15C3.03333 26.15 4.11667 26.1333 5.55 26.1L14.85 25.6C15.5167 25.6 16.2167 25.6333 16.95 25.7C17.7167 25.7667 18.55 25.8833 19.45 26.05C21.25 26.3167 22.15 26.15 22.15 25.55L26.4 25.05C26.5333 25.0167 26.7667 25 27.1 25C27.4667 25 27.7167 24.9833 27.85 24.95C28.3833 24.8833 28.7333 24.75 28.9 24.55C29.0667 24.35 29.2 24.2333 29.3 24.2C29.4333 24.4667 29.7833 24.6833 30.35 24.85C30.9167 24.9833 31.4167 25.1667 31.85 25.4Z" fill="black"/>
</svg>
